PathFileType	4	(X/Y/Z)	C:/Users/opensim2020/Desktop/walking_exp_matlab/subject03_walking09_straight_04.trc																																																																																																																																											
DataRate	CameraRate	NumFrames	NumMarkers	Units	OrigDataRate	OrigDataStartFrame	OrigNumFrames																																																																																																																																							
100	100	4	47	mm	100	3877	353																																																																																																																																							
Frame#	Time	LFHD			RFHD			LBHD			RBHD			C7			T10			CLAV			STRN			RBAK			LSHO			LUPA			LELB			LFRM			LWRA			LWRB			LFIN			RSHO			RUPA			RELB			RFRM			RWRA			RWRB			RFIN			LASI			RASI			LPSI			RPSI			LTHI			LKNE			LTIB			LANK			LHEE			LTOE			RTHI			RKNE			RTIB			RANK			RHEE			RTOE			*39			*40			*41			*42			*43			*44			*45			*46		
		X1	Y1	Z1	X2	Y2	Z2	X3	Y3	Z3	X4	Y4	Z4	X5	Y5	Z5	X6	Y6	Z6	X7	Y7	Z7	X8	Y8	Z8	X9	Y9	Z9	X10	Y10	Z10	X11	Y11	Z11	X12	Y12	Z12	X13	Y13	Z13	X14	Y14	Z14	X15	Y15	Z15	X16	Y16	Z16	X17	Y17	Z17	X18	Y18	Z18	X19	Y19	Z19	X20	Y20	Z20	X21	Y21	Z21	X22	Y22	Z22	X23	Y23	Z23	X24	Y24	Z24	X25	Y25	Z25	X26	Y26	Z26	X27	Y27	Z27	X28	Y28	Z28	X29	Y29	Z29	X30	Y30	Z30	X31	Y31	Z31	X32	Y32	Z32	X33	Y33	Z33	X34	Y34	Z34	X35	Y35	Z35	X36	Y36	Z36	X37	Y37	Z37	X38	Y38	Z38	X39	Y39	Z39	X40	Y40	Z40	X41	Y41	Z41	X42	Y42	Z42	X43	Y43	Z43	X44	Y44	Z44	X45	Y45	Z45	X46	Y46	Z46	X47	Y47	Z47
																																																																																																																																														
133	1.32	-497.18668	1616.1676	-1492.50317	-498.3735	1624.73071	-1360.31396	-620.95526	1560.82166	-1485.54797	-616.90271	1569.52124	-1355.62927	-642.54321	1413.11829	-1418.44067	-688.79272	1102.599	-1413.40686	-523.46246	1331.90491	-1426.37122	-489.23584	1164.58569	-1430.61707	-694.28796	1244.17542	-1312.89868	-580.37897	1368.40625	-1579.14343	-628.95367	1174.11316	-1645.08081	-642.21252	1052.0957	-1659.40417	-622.58966	923.6731	-1663.68042	-599.38239	806.51447	-1637.61487	-634.92719	810.89819	-1680.30798	-617.77991	728.51105	-1674.71985	-553.04321	1360.21484	-1264.93555	-514.49377	1145.37805	-1186.6532	-475.0322	1040.10461	-1173.49487	-427.01349	911.90851	-1172.32336	-380.42493	825.5069	-1211.10999	-403.49829	814.73083	-1163.38184	-364.06201	752.75098	-1174.12646	-527.07422	936.26715	-1537.05066	-525.20209	933.65497	-1298.78113	-689.63947	952.75256	-1486.63672	-685.09943	966.68402	-1337.12598	-520.61993	636.04547	-1589.28455	-453.19168	472.92993	-1545.37854	-440.82498	283.19879	-1552.94421	-384.43088	79.44827	-1526.0697	-410.47739	34.92294	-1484.24194	-230.07339	74.52377	-1508.35486	-613.91034	643.79926	-1265.03442	-633.54645	465.40964	-1301.8429	-716.92914	290.62576	-1302.60022	-784.33191	84.36745	-1355.68982	-831.37085	58.71342	-1407.54504	-647.00714	35.64169	-1369.5697	-584.15735	1668.7373	-1439.15881	NaN	NaN	NaN	NaN	NaN	NaN	NaN	NaN	NaN	NaN	NaN	NaN	NaN	NaN	NaN	NaN	NaN	NaN	NaN	NaN	NaN
134	1.33	-489.40179	1615.30566	-1493.61658	-490.6109	1624.00671	-1361.42969	-613.01117	1559.95813	-1486.64551	-609.16486	1568.854	-1356.8468	-634.81671	1412.42163	-1419.72388	-681.38202	1101.95264	-1414.78247	-515.84338	1331.10095	-1427.19946	-481.87762	1163.66956	-1431.15637	-687.03729	1243.61133	-1314.28503	-572.30096	1367.54541	-1580.25854	-621.29895	1173.17798	-1645.58923	-634.88141	1050.93835	-1659.33032	-616.16071	922.52722	-1663.44995	-593.45374	805.30865	-1637.05725	-629.12183	809.74872	-1679.63867	-612.58649	727.22321	-1673.68091	-545.83911	1359.39148	-1265.88855	-507.21991	1144.64453	-1187.81702	-467.67569	1039.39954	-1174.7616	-419.13437	911.40161	-1173.77271	-372.04529	825.40131	-1212.74341	-395.2341	814.28607	-1165.15759	-355.22058	752.5304	-1176.06934	-519.11487	935.36584	-1537.67188	-518.448	933.02087	-1299.22644	-681.91589	951.84229	-1488.07202	-678.27783	965.91339	-1338.55676	-513.96802	634.57959	-1589.30957	-447.17905	471.4696	-1544.60107	-431.84174	282.68045	-1552.52161	-371.01633	79.25621	-1525.6134	-397.46301	34.92302	-1484.69861	-217.25005	77.33629	-1509.02454	-607.97205	643.4931	-1265.58643	-628.52765	465.09351	-1301.80396	-713.78925	291.05099	-1302.5509	-783.69098	85.51511	-1355.27649	-831.01819	60.34214	-1407.09338	-646.82965	35.55348	-1369.44434	-577.55664	1670.47498	-1444.66443	NaN	NaN	NaN	NaN	NaN	NaN	NaN	NaN	NaN	NaN	NaN	NaN	NaN	NaN	NaN	NaN	NaN	NaN	NaN	NaN	NaN
135	1.34	-481.45035	1614.50452	-1494.7915	-482.80994	1623.30969	-1362.55127	-605.04352	1559.14172	-1487.77808	-601.35486	1568.20642	-1357.97693	-627.1156	1411.75684	-1420.96069	-673.85608	1101.32361	-1416.29395	-508.0303	1330.36951	-1428.06726	-474.276	1162.84497	-1431.74011	-679.84131	1243.03601	-1315.61304	-564.05823	1366.73376	-1581.37451	-613.36768	1172.27051	-1646.20728	-627.44763	1049.99255	-1659.45801	-609.49957	921.43433	-1663.22168	-587.34113	804.17212	-1636.52734	-623.07562	808.67249	-1679.09387	-607.16602	725.97931	-1672.71057	-538.63159	1358.70862	-1266.9032	-500.1727	1143.94458	-1189.01978	-460.50677	1038.64587	-1176.11719	-411.54019	910.84186	-1175.3302	-363.9978	825.22394	-1214.50061	-387.32071	813.78778	-1166.97742	-347.22467	752.3631	-1177.9187	-510.98306	934.48877	-1538.23901	-511.5094	932.39398	-1299.71057	-674.19427	951.12396	-1489.7085	-671.22412	965.22864	-1340.10608	-506.84406	633.3385	-1588.99585	-440.46936	470.28745	-1544.05591	-423.68613	282.11044	-1552.47021	-360.82501	78.81558	-1525.57935	-386.3356	34.02419	-1484.8291	-206.75804	78.86098	-1509.44556	-602.03491	643.20728	-1266.02612	-623.32227	464.80649	-1301.81433	-710.53314	291.57501	-1302.38452	-783.04877	86.84224	-1354.797	-830.62964	62.09368	-1406.54407	-646.61035	35.47243	-1369.32324	-569.66241	1669.68555	-1445.98853	NaN	NaN	NaN	NaN	NaN	NaN	NaN	NaN	NaN	NaN	NaN	NaN	NaN	NaN	NaN	NaN	NaN	NaN	NaN	NaN	NaN
136	1.35	-473.49319	1613.75146	-1495.96667	-474.96188	1622.67932	-1363.72925	-597.09174	1558.44739	-1489.00354	-593.51172	1567.62756	-1359.17993	-619.39014	1411.29272	-1422.47339	-666.22131	1100.7019	-1417.93018	-500.25409	1329.67273	-1428.96008	-466.42551	1162.22229	-1432.46753	-672.44269	1242.44836	-1317.1936	-555.72437	1366.00195	-1582.56006	-605.29108	1171.42993	-1646.90857	-619.9375	1049.14551	-1659.82886	-602.55231	920.39423	-1663.10364	-580.98523	803.08142	-1636.01941	-616.81	807.68713	-1678.60596	-601.54059	724.79871	-1671.79688	-531.36633	1358.07593	-1267.97986	-493.13528	1143.17395	-1190.32703	-453.55411	1037.90125	-1177.44995	-404.13806	910.31891	-1176.97656	-356.04395	824.88245	-1216.06348	-379.73117	813.26294	-1168.84741	-339.3912	751.95496	-1179.88208	-502.76581	933.64374	-1538.86755	-504.45825	931.8396	-1300.2804	-666.13464	950.6347	-1491.39856	-663.94379	964.57477	-1341.70264	-499.26147	632.34583	-1588.96167	-433.19199	469.3631	-1543.84424	-416.10165	281.38364	-1552.34766	-353.09543	78.2953	-1525.45996	-378.34912	33.14358	-1484.65039	-198.78352	78.68958	-1509.28284	-596.013	642.96405	-1266.14771	-617.8985	464.57034	-1301.86365	-707.06952	292.14182	-1302.24158	-782.26733	88.07877	-1354.23779	-830.21021	64.01858	-1406.00403	-646.40662	35.39418	-1369.16431	-561.71631	1668.63953	-1447.79114	NaN	NaN	NaN	NaN	NaN	NaN	NaN	NaN	NaN	NaN	NaN	NaN	NaN	NaN	NaN	NaN	NaN	NaN	NaN	NaN	NaN
